<?xml version="1.0" encoding="UTF-8"?>
<svg id="Capa_2" data-name="Capa 2" xmlns="http://www.w3.org/2000/svg" viewBox="0 0 929.18 1042.29">
  <defs>
    <style>
      .cls-1 {
        fill: #1d1d1b;
      }
    </style>
  </defs>
  <g id="Capa_1-2" data-name="Capa 1">
    <g>
      <path class="cls-1" d="M114.35,455.05c8.7,7.15,19.94,10.27,27.31,18.69l16.15,45.34c-16.86-20.91-31.72-42.2-60.98-44.99,3.83,16.48,18.97,36.24,33.94,44.55,7.94,4.41,18.28,6.56,26.41,10.59,12.66,6.27,19.56,22.71,27.81,34.19,2.74,3.82,6.33,7.14,8.82,11.18-1.31,1.31-3.79-1.33-4.89-2.11-11.78-8.34-25.48-22.36-39.09-26.91-3.93-1.31-27.95-5.99-30.01-4.48,9.81,17.45,27.08,33.6,46.97,38.52,15.19,3.76,26.62.45,39.56,11.44,10.98,9.33,21.37,22.13,31.47,32.53-.78,1.5-2.41-.29-3.33-.67-12.04-5.08-25.83-14.95-38.43-17.57-4.95-1.03-36.6-2.49-38.24-.25,4.49,6.69,13.2,12.14,20.33,16.16,9.84,5.54,21.84,11.08,33.13,11.87,13.47.94,27.22-1.32,40.6,1.4l45.93,32.07c-1.82.75-4.84-.68-6.76-1.25-12.96-3.81-27.16-10.75-40.7-11.3-7.75-.32-32.92,2.7-38.52,7.56-1.58,1.37-.69,1.28.49,2.46,14.83,14.76,48.67,15.53,67.98,14.01,8.49-.67,25.84-4.76,32.91-3.98,6.52.72,31.11,12.55,39.35,15.73,4.29,1.65,8.67,3.51,13.24,4.26.24,1.74-2.27.94-3.48.99-27.12,1.05-56.11-2.9-80.22,11.79-1.24.76-2.36,1.56-3.27,2.71,19.54,10.66,43.46,12.54,64.77,5.79,9.76-3.09,29.36-14.27,38.26-13.83,9.66.48,32.56,8,42.96,11.05,7.02,2.06,14.29,4.04,21,7-16.02,5-36.55,10.09-50.69,19.3-6.32,4.12-1.78,5.39,3.49,6.9,3.99,1.15,7.04,1.91,11.24.82,13.04-3.39,29.88-17.11,44.95-21.03,16.5-4.3,43.38,14.73,58.28,21.75,3.67,1.63,15.25-2.07,18.14-4.2,1.11-.82.97-1.09.12-2.06l-51.52-22.96,62.5-16.49c34.35,10.85,68.36,30.1,103.47,8.98.04-2.53-23.86-12.44-27.72-13.26-16.92-3.59-36.69-.28-53.8-2.2-1.5-.17-3.08-.21-3.46-2.03,18.18-4.32,35.12-13.44,52.73-19.79,34.08,6.35,70.97,12.36,100.25-10.72-.01-.81-5.21-3.19-6.3-3.68-8.93-3.96-35.76-3.85-46.17-2.81-5.07.51-30.2,9.97-31.51,8.98,13.09-10.97,28.32-19.97,42.04-30.45,35.77-2.8,66.11,2.41,93.97-25.03,1.67-1.65,3.48-2.75,2.99-5.51h-41.5c-1.74,0-26.64,14.14-30.82,16.18-3.62,1.76-7.89,3.4-11.68,4.81,8.83-7.62,16.45-16.59,24.99-24.5,3.68-3.41,8.87-8.45,12.54-11.46,9.55-7.83,24.57-6.27,36.68-9.33,14-3.53,24.68-11.14,34.69-21.31,2.04-2.07,14.17-15.41,12.1-17.39-10.59,1.22-23.7,1.9-33.68,5.81-13.94,5.46-23.96,18.97-36.07,27.14-.8.54-2.65,1.9-3.24.55,5-7.87,10.79-15.36,15.82-23.18,2.62-4.06,7.84-15.87,10.64-18.36,3.86-3.45,24.33-9.66,30.91-13.09,13.76-7.16,29.91-24.85,35.8-39.2.6-1.47,3.57-7.03.38-6.64-4.86.59-13.85,3.56-18.53,5.48-13.23,5.41-20.1,13.26-28.99,24.01l-14.04,17.96c.71-3.65,1.98-7.27,3.25-10.75,2.93-8.04,10.43-30.99,14.33-36.67,4.4-6.4,22.28-13.64,29.76-19.24,14.29-10.7,23.4-31.24,25.16-48.84-12.75,4.1-24.25,12.09-32.32,22.68-7.05,9.25-11.02,20.41-17.35,29.65-.36.52-2.03,3.39-2.83,2.17l10.12-52.72c5.54-8.87,16.47-14.34,23.41-22.76,6.88-8.36,14.49-26.77,14.49-37.51v-15.5c-2.21.12-4.36,2.14-6.01,3.49-7.05,5.74-15.26,15.62-19.17,23.83l-12.8,33.68c-.93-15.47-1.32-30.92-.96-46.45,14.36-21.49,27.22-36.23,24.94-64.03-.12-1.51-2.36-17.01-4.99-15.03-1.58,1.18-6.63,8.81-8.01,10.99-4.81,7.63-7.81,14.38-9.68,23.32l-4.29,29.2c-1.65-16.08-10.01-33.98-5.51-50,1.7-6.07,5.65-12.34,7.53-18.47,5.27-17.15,3.5-34.34-3.28-50.79-.79-1.91-1.8-6.5-4.64-4.63-1.26.83-9.19,20.06-9.67,22.83-1.92,11.27.89,21.61,1.6,32.51.07,1.16.72,5.54-1.03,5.54-2.68-11.58-7.8-22.53-10.35-34.15-5.98-27.25-4.63-38.28-26.01-59.49l-9.64-7.35c-.1,12.93.13,28.17,5.24,40.25,4.87,11.53,17.32,21.64,23.15,32.85,4.16,8.01,7.01,19.15,9.6,27.89-6.87-8.33-11.16-17.82-20.47-24.02-3.54-2.36-26.07-13.29-28.52-10.97,2.92,12.05,13.12,24.93,22.47,33.02,6.65,5.75,29.83,17.95,32.51,22.71,2.41,4.29,7.59,31.02,8.01,36.79.08,1.08.62,2.74-.98,2.47-8.28-20.57-23.08-39.41-46.01-42.99,3.28,16.05,12.88,33.3,25.52,43.97,4.38,3.7,23.42,15.38,24.96,19.04,1.31,3.12.76,23.55.56,28.52l-2.03,16.45c-5.14-23.99-17.1-45.87-42.01-52.99,1.47,12.56,6.78,26.21,13.58,36.91,7.77,12.23,19.79,20.18,29.52,30.58-1.24,12.97-3.03,25.78-5.56,38.55l-2.53,7.96c-1.87-11.11-2.41-24.63-7.8-34.7-3.43-6.4-14.25-16.87-20.68-20.32-1.21-.65-1.9-1.36-3.52-.97-.89,14.75,3.19,30.48,9.97,43.52,2.92,5.62,17.56,24.46,18.03,28.04.43,3.26-2.82,11.39-3.98,14.95-2.26,6.92-7.8,24.48-11.15,29.85-.44.7-.94,1.66-1.86,1.63.54-17.41,4-31.45-5.21-47.3-1.78-3.07-10.77-15.62-14.28-14.69-1.98,2.25-2.34,6.58-2.56,9.46-1.05,13.63.66,27.98,5.27,40.8,1.92,5.35,11.26,22.08,10.6,25.98-.5,2.97-7.76,14.9-9.82,18.27-4.66,7.65-10.53,16.44-17.01,22.48,8.1-24.64,12.7-51.25-8-71-6.77,16.07-8.81,30.05-6.89,47.37.98,8.82,7.11,28.16,5.83,35.08-1.21,6.51-21.4,21.71-25.94,28.06l-13.01,9.48c3.53-7.96,9.29-14.87,12.48-23.01,6.47-16.52,6.26-35.88-.98-51.96-1.71,0-9.06,10.56-10.33,12.65-11.83,19.56-10.63,30.6-10.22,52.87.09,4.7,2.97,14.13-.26,18.17-15.61,10.78-30.46,23.03-47.7,31.28,10.24-14.42,24.66-27.52,29.28-45.21,1.51-5.8,4.48-23.94,3.72-29.3-.15-1.03.26-2.15-1.48-1.47-3.42,1.34-21.54,19.69-24.49,23.51-11.87,15.35-11.24,26.67-15.89,44.11-4.25,15.94-5.94,15.87-20.45,22.55-12.07,5.55-25.86,10.22-38.67,13.82l14.48-11.01c18.52-13.37,29.02-31.07,31.51-53.98-1.1-.08-2.18-.09-3.26.23-3.63,1.07-17.82,11.73-21.21,14.79-15.89,14.35-23.93,36.15-33.78,54.72-13.47,3.55-26.81,7.76-40.33,11.17-9.46,2.39-27.01,8.02-35.97,8.1-3.82.04-11.54-2.32-15.67-3.31-20.05-4.8-40.08-11.29-59.77-17.23-15.17-24.47-27.59-57.74-57.02-67.48-1.36,31.2,21.53,47.75,43.99,63.99-5.67-.76-11.16-3.06-16.52-4.97-7.78-2.78-29.26-10.01-34.99-14.01-1.63-1.14-2.7-2.67-3.55-4.45-4.71-9.88-5.38-26.74-9.22-37.78-3.09-8.88-11.01-20.65-17.21-27.79-2.26-2.6-16.04-16.82-18.51-14.98,2.63,14.66,1.53,29.67,7.81,43.68,6.1,13.62,19.29,21.94,27.19,34.3-1.1.89-6.09-2.45-7.31-3.18-12.1-7.22-28.85-18.45-39.6-27.4-1.63-1.35-3.64-2.69-4.06-4.94-.98-14.25,1.22-29.95.01-44.01-1.04-12.12-13.39-27.7-21.54-36.46-11.56,26.65-.66,50.78,12.5,73.99l-17.53-13.96c-4.11-3.9-21.33-21.67-22.04-25.96-.76-4.58,4.61-22.17,5.44-28.69,2.18-17.22,1.89-33.57-5.89-49.37-2.05-1.52-8.26,9.49-9.17,11.31-8.98,17.84-4.95,38.52,1.18,56.69-8.6-7.83-14.34-18.73-20.38-28.61-1.84-3.01-6.3-7.26-7.17-11.37-.91-4.25,11.16-24.3,13.32-30.76,1.04-3.09,2.6-7.91,2.98-11.02.47-3.79.77-31.81-.22-33.27-2.31-3.43-10.9,6.5-12.5,8.55-13.09,16.76-8.9,31.92-11.04,51.47l-5.74-12.75c-1.66-8.75-11.63-25.75-8.47-33.97,2.75-7.17,12.17-17.9,16.39-25.6,7.59-13.86,12.45-29.73,11.82-45.67-8.7,5.82-19.35,12.84-24.17,22.32-5.47,10.74-5.07,21.21-7.82,32.18-.35,1.39.01,3.12-1.99,3.5-.23-11.92-9.85-37.48-6.56-48.05,1.58-5.1,19.34-17.9,23.95-23.05,9.64-10.78,16.43-29.76,18.6-43.89-13.97,4-26.96,14.01-33.48,27.01l-9.51,23.99v-42.5c0-4.73,16.93-14.91,20.91-18.09,8.67-6.91,15.01-12.66,20.6-22.4,4.03-7.03,8.94-15.78,7.99-24.01-14.05,4.94-25.41,12.64-34.95,24.05l-11.55,20.93c2.35-11.51,3.36-36.66,12.07-44.42,5.16-4.59,13.64-7.75,19.39-11.61,11.27-7.58,29.27-24.56,33.27-37.74.44-1.44,1.13-3.63-1.11-3.12-7.03,1.6-22.97,8.08-29.15,11.87-8.67,5.31-12.35,15.19-19.46,22.03,2.61-8.53,5.27-19.2,9.45-27.04,12.04-22.59,26.33-23.62,28.53-55.47,1.17-16.91.16-19.71-11.53-7.53-22.12,23.04-18.63,32.97-25.53,61.47-2.59,10.72-6.98,20.97-9.94,31.56-1.71.25-1.06-2.38-.98-3.47,1.71-21.65,6.96-29.83-3.82-51.21-4.63-9.19-5.09-9.04-8.95.43-5.4,13.23-7.26,30.33-3.74,44.27,2.16,8.57,9.07,18.24,11.03,25.96,2.45,9.65-7.7,32.94-8.01,44.05l-1.5.99c-1.57-22.42-3.58-46.51-20.51-62.98-5.09,0-4.91,30.27-4.49,34.47,1.59,15.96,14.22,27.68,21.41,40.59,4.46,8.02,1.7,8.85,1.54,16.37-.23,11.5.98,23.21-.97,34.54l-14.17-38.32c-4.46-6.35-9.46-12.57-15.3-17.7-.89-.79-7.84-6.75-8.52-5.97,1.4,18.42,2.39,37.18,14.02,52.47,6.07,7.97,21.29,17.74,24.47,25.53,5.73,14.06,5.27,35.62,10.52,50.48-.75,1.41-1.89-1.35-2.19-1.82-10.04-15.68-15.42-32.04-31.33-42.61-2.69-1.79-16.07-10.39-18.49-8.06,3.87,18.31,11.88,35.94,26.52,47.97Z"/>
      <path class="cls-1" d="M504.82,633.08l-4.01-256.99c-2.33-.51-1.6.31-2.23,1.28-1.53,2.36-3.32,6.62-4.62,9.35-16.77,35.47-31.6,79.1-53.73,111.27-4.1,5.96-14.84,19.65-23.17,11.83-4.53-4.25-9.41-28.26-11.26-35.24l8.63,19.37c7.5,19.21,17.53,3.36,24.21-6.55,21.6-32.07,44.33-82.69,60.35-118.65,4.27-9.59,16.82-50.11,16.82-59.18v-31.5l5.48,27.02c1.27,1.68,4.56.85,6.53.98.56-2.94-.77-5.7-.99-8.52-.09-1.1-.73-3.73.98-3.48,1.81,9.49,3.49,21.02,15.49,21.03,4.26,0-1.1-6.54-1.43-8.58-.23-1.42-.34-8.64.08-9.31.84-1.34,17.26-2.33,19.86-4.63-.91-1.16-2.06-1.92-3.3-2.7-11.14-7-34.99-20.89-46.71-25.29-3.27-1.23-9.54-4.12-12.49-1.52-3.85,3.38-7.34,29.64-15.48,34.01,4.37-11.96,9.44-22.9,9.99-35.99-7.16-1.47-6.63,2.61-10.02,6.47-14.18,16.17-34.7,17.27-50.51,2.55-1.24-1.16-9.91-12.75-11.47-11.02.82,10.86,7.78,19.97,15.52,26.97l9.96,7.04c-10.59-2.12-20.01-12.37-23.97-22.03-1.85-4.51-2.16-16.28-9.56-11.52-2.12,1.37-3.72,22.04-4,25.99-.9,12.61-1.85,29.67-1,42.08.25,3.72,2.26,17.19,4.51,19.49,4.06,4.13,20.25-2.67,25.21-4.84l24.31-17.18c-6.5,8.16-16.02,19.55-25.72,23.77-4.42,1.92-25.62,6.4-26.23,9.84-.53,2.99,7.01,5.13,9.44,5.39,27.18,2.91,42.56-15.51,61-31.01,1.12-.94,1.63-2.43,3.5-1.99-10.71,15.02-28.3,32.01-45.76,38.73-10.9,4.19-15.16-2.7-25.24-2.73.25,10.81,13.09,19,23.24,17.73,20.41-2.54,28.74-17.3,41.75-30.74-1.96,5.28-5.86,10.78-9.18,15.31-2.77,3.79-6.89,9.73-10.49,12.51-8.15,6.29-23.22,8.51-33.32,8.18-2.85,2.55,12.38,9.6,14.55,9.93,21.45,3.27,42.93-29.89,51.61-46.26,3.7-6.98,12.48-26.12,13.83-33.17v-48.5l3.99,20.51c1.82,26.16-2.05,39.6-13.47,62.51-7.6,15.25-25.7,47.98-44.02,49.98-9.72,1.06-26.67-3.47-31.04-13.06-1.15-2.53-.88-3.15-2.91-7.01-.85-1.62-4.07-8.71-5.08-8.94-2.74-.63-5.47,6.55-5.47,8.5v42.5l-1.99-11.51c-.43-4.57.02-13.94-1.13-17.87-.78-2.66-2.06-1.21-3.08.66-12.99,23.62-11.29,78.86-5.3,104.72,2.29,9.88,11.03,43.07,24.75,40.82,10.51-1.72,27.6-31.68,34.75-39.83-7.35,18.13-27.02,65.73-50.96,37.47-1.99-2.35-9.83-16.85-9.85-7-.04,17.36,6.42,36.77,17.38,50.47,4.78,5.97,7.31,2.81,12.45-1.43,23.56-19.43,35.07-47.16,44.48-75.52l27.49-102.99c-2.93,21.11-7.59,42.21-12.48,63.01-11.39,48.51-24.56,100.44-65.59,132.64-.42,2.71,9.85,24.18,12.23,26.7.69.73.88,2.02,2.33,1.65l31.5-59.99c-4.73,23.87-16.97,45.2-27.97,66.59-.75,4.04,5.64,19.5,10.27,18.29,3.48-.9,14.36-21.36,16.42-25.68,14.27-29.93,15.84-67.09,24.98-99.02l8.3-46.19c-1.78,16.42-2.98,32.97-5.13,49.35-4.6,35.06-9.67,88.6-33.35,115.65-1.98,2.27-11.55,9.69-11.53,11.47.02,1.8,3.03,6.04,5.34,5.41.98-.27,13.71-11.57,15.33-13.24,11.24-11.61,14.48-23.82,21.86-37.64,2.04-.47,1.35.83,1.97,1.97,3.52,6.42,5.73,14.46,13.51,17.02ZM437.17,433.87c5.06-.47,20.33-19.46,25.64-22.79-2.55,8.06-7.95,14.62-13.64,20.34-4.22,4.24-5.83,8.44-13.61,6.41-3.66-.96-15.82-13.23-16.73-17.75,4.07,2.8,13.26,14.26,18.34,13.79Z"/>
      <path class="cls-1" d="M260.32,556.08h38.5V177.08h-41.5c-.3,0-.77-1.27-1.5-1v374.5c0,.7,4.05,5.5,4.5,5.5ZM282.82,184.08c1.43-.26,6-.03,6,1.5v360.5h-6V184.08ZM266.18,185.53c.84-2.13,3.66-1.38,5.64-1.44v362l-5.06-1.62c-.52-95.3.89-190.63.11-285.93-.03-3.09-1.07-5.81-1.1-8.9-.2-21.35-.04-42.81.41-64.1Z"/>
      <path class="cls-1" d="M660.78,84.63c-6.65-2.46-14.33-4.6-21.19-6.81-58.86-18.98-118.08-36.89-177.29-54.78-65.13,19.6-130.43,39.07-195.24,59.78-4.16,1.33-10.07,2.53-13.23,5.26h413c-.89-2.02-4.09-2.73-6.04-3.45ZM593.37,79.14c-89.52-.65-179.21,1.31-268.56-1.55l126.02-38.99c11.19-4.68,21.03-.12,31.99,3,38.56,10.98,76.4,24.69,115,35.51l-4.45,2.04Z"/>
      <path class="cls-1" d="M652.84,866.6c13.19-48.97-26.69-88.64-75.22-84.22-42.44,3.87-71.69,43.99-62.33,85.73,15.02,67,119.54,65.34,137.55-1.52ZM553.27,806.5c5.89-6.52,15.12-12.51,24.06-13.41,58.62-5.87,69.22,101.56,17.74,112.74-50.74,11.02-71.47-66.45-41.8-99.33Z"/>
      <path class="cls-1" d="M786.84,916.57l7.99.52c1.3-38.72.98-77.59,1.05-116.45,1.23-8.02,12.81-8.74,13.94-15.56h-40.5c-.53,0-2.06,2.17-1.49,2.98.26.38,7.01,3.15,8.25,4.04,4.64,3.33,6.01,6.97,6.62,12.6,1.61,14.73,1.89,41.87,1.17,56.92-.22,4.5-1.53,8.98-1.56,13.46-2.67-.22-26.32-26.85-30-31-17.09-19.25-33.23-39.46-49.99-59.01h-33c-.35,0-1.74,1.53-1.5,2.49.46,1.88,13.53,7.59,12.94,12.07l.11,99.99c-.99,7.28-11.26,8.1-13.05,14.45h41l-.66-3.05-13.34-8.95v-87c31.38,33.21,60.18,68.71,92.02,101.48Z"/>
      <path class="cls-1" d="M368.32,791.08c1.34-1.15,4.42-2.04,5.04-2.96.96-1.46-.5-3.03-1.03-3.03h-39c-.12,0-2,1.45-1.01,2,3.65,5.01,13.24,7.84,14.47,14.54,2.4,13.15.36,26.83,0,39.92-.31,11.22.43,22.38-.97,33.54-14.77-14.95-28.77-30.99-42.5-46.99-12.03-14.01-23.95-28.2-34.99-43.01h-32c-.31,0-1.87,1.64-1.5,2.48,4.55,4.43,10.25,7.81,13.55,13.46,1.7,27.52,2.1,55.12.46,82.56-.45,7.54,1.9,14.25-3.48,20.52-1.61,1.87-10.37,7.82-10.53,8.48-.24.96,1.15,2.49,1.5,2.49h36c.36,0,1.71-1.51,1.5-2.49-.41-1.85-7.18-5.72-8.48-7.53-1.39-1.93-2.26-6.09-2.5-8.5-1.54-15.4-1.49-38.31-1.06-54.04.22-7.83,1.56-16.45,1.54-24.45,5.89,5.77,11.52,11.85,17.02,17.98,20.29,22.63,39.45,47.7,60.46,69.54,4.69,4.88,10.49,12.95,17.92,11.36l1.14-6.35-.06-111.83c3.4-1.98,5.6-5.23,8.52-7.71Z"/>
      <path class="cls-1" d="M210.53,88.93c3.2.94,8.18-1.8,11.51-2.13L462.32,12.59c83.51,24.67,166.04,53.43,249.91,76.48,4.83-.98,6-5.58,6.59-9.97L487.59,6.82l-26.27-6.82c-77.41,23.12-154.92,46.29-231.71,71.38-3.05,1-23.61,7.09-23.87,8.33-.47,2.25,2.44,8.53,4.79,9.22Z"/>
      <path class="cls-1" d="M696.68,128.94c.9-.71,1.44-10.71,2.14-12.85l-471.01,1.51,2.6,12.54h447.97c3.27-1.69,16.72.06,18.31-1.21Z"/>
      <path class="cls-1" d="M140.34,873.1c10.52-.94,22.71-.52,33.32-.85.71,2.03,1.76,3.91,2.63,5.87,2.13,4.78,9.34,22.44,9.52,26.58.25,5.65-7.8,4.87-10.97,7.89,0,.68,4.58,2.37,5.48,2.5,13.1,1.89,30.42-1.41,44,0,.58-.72,1.54-.75,1.01-2-.79-1.88-8-5.84-10.05-7.96-4.77-4.93-9.93-19.17-12.93-26.07-12.13-27.98-22.51-63.23-36.65-89.35-1.91-3.52-2.9-5.65-7.36-5.71-2.87-.04-19.82,3.53-20.46,5.69-.97,3.25,3.32,3.36,4.41,5.42.95,1.79,1.27,5.64.9,7.78-7.73,22.31-15.75,44.59-24.62,66.46-3.57,8.79-10.58,29.51-15.7,36.04-1.24,1.59-16.44,6.46-14.05,8.7h43.99c1.3-1.84-5.25-4.96-6.53-6-.9-.73-1.06-2.11-1.68-2.69-.41-.38-3.6,1.1-3.84-4.83-.12-3,7.06-21.85,9.03-24.01,2.11-2.32,7.41-3.17,10.55-3.45ZM151.83,816.09l17.82,41.73c.49,1.42,0,2.65-1.49,3.11-2.83.89-14.37,1.26-17.89,1.19-2.65-.06-9.52-.61-11.95-1.04-1.07-.19-2.09-.44-2.43-1.62-1.01-3.47,14.64-37.03,15.94-43.37Z"/>
      <path class="cls-1" d="M389.37,911.13l-.55,2.95c2.15-.99,5.41,1,6.5,1h98.5l3.09-30.51c-.18-3.14-1.86-5.06-4.4-2.26-3.57,3.94-6.65,11.43-10.66,15.31-1.11,1.07-9.82,6.47-10.53,6.47h-50.5c1.28-4.12,4.26-8.23,6.58-11.92,18.68-29.61,44.01-61.8,59.59-92.41,2.55-5.01,4.84-8.62,3.83-14.67h-94c-1.2,8.29-2.99,18.21-2.05,26.55.79,6.99,5.41.8,8.07-2.02,4.19-4.43,10.39-13.53,17.47-13.53h41.5c-1.28,4.15-4.27,8.19-6.58,11.92-21.53,34.64-44.61,68.31-65.86,103.14Z"/>
      <path class="cls-1" d="M928.68,880.72c-.77-2.84-2.73-.54-3.86.87-3.64,4.52-5.17,10.39-9.98,15.02-11.4,10.98-25.07,6.98-39.56,7.44-2.15.07-12.46,2.7-12.46-.46v-49.5c8.89.83,25.48-1.24,32.49,4.01,2.15,1.61,6.54,9.39,8.48,6.31.08-.13,1.02-2.67,1.02-2.82v-31c0-.35-1.53-1.74-2.49-1.5-.79.19-7.91,10.25-11.13,11.88-1.19.6-7.85,2.12-8.88,2.12h-19.5v-48c5.49.17,11.04-.22,16.54-.04,4.64.15,15.64.57,19.53,1.47,10.36,2.4,14.17,15.42,23.93,17.56l-3.99-28.99h-90.5c-.31,0-1.87,1.64-1.5,2.49,5.17,4.95,13.69,6.57,13.88,15.13-1.2,29.45,1.99,60.69.16,89.93-.34,5.47-.7,13.14-5.68,16.32-3.31,2.11-9.25.89-6.93,5.18l97.56-.05c-.69-8.89,5.04-25.32,2.86-33.37Z"/>
      <path class="cls-1" d="M708.82,98.09l-493.02.51c.46,2.54,2,9.27,4.47,9.56l485.38-.24c1.06-3.3,3.68-6.13,3.16-9.83Z"/>
      <path class="cls-1" d="M364.53,391.3c9.52-19.68,25.05-54.94,28.16-75.84.72-4.81.96-10.47,1.14-15.37l3.28,24.2c.24.99,4.06,13.94,5.57,8.16l4.13-70.37c-12.74.57-24.66,16.1-29.48,27.02-7.04,15.94-11.35,34.71-17.77,51.23-5.43,13.96-14.06,27.88-18.79,41.21-4.54,12.8-5.5,28.06-10.19,40.81-4.23,11.52-13.61,22.12-18.55,33.46-2.79,6.49,8.94,23.04,15.35,18.33,2.39-1.75,11.17-15.57,12.2-18.79,2.5-7.8-.13-15.2,1.7-22.3,2.36-9.21,18.06-31.04,23.24-41.76Z"/>
      <path class="cls-1" d="M84.56,886.32c2.99-20.38-5.91-30.15-21.43-41.05-9.44-6.63-34.96-18.48-37.08-29.92-4.52-24.34,22.56-29.43,37.31-15.31,4.73,4.52,7.44,12.69,10.91,16.09,1.43,1.4,2.3,2.34,4.54,1.95.05-5.3-.29-28.24-3.42-31.07-4.33-3.91-28.61-6.32-34.94-5.8-27.83,2.3-48.89,26.68-31.43,53.17,11.56,17.54,44.72,24.78,52.21,41.79,11.53,26.22-22.68,40.63-43.41,22.41-6.97-6.13-8.27-14.45-13.12-20.88-7.15-9.5-4.11,14.93-3.73,17.73,1.87,13.99,1.3,16.88,15.82,20.18,24.7,5.6,63.22,1.74,67.78-29.3Z"/>
      <path class="cls-1" d="M668.87,419.54c-.17-2.89-.89-5.59-1.06-8.45-1.3,1.4-7.99,2.19-7.99,3.5v131.5h-6.01s-.99-131.5-.99-131.5c-.71-3.75-7.83-2.66-11-3.5v135h-5v-135.5c0-1.01-10-5.01-10-2v147.5h33.5c2.18,0,9.3-2.97,8.55-6.45-2.02-42.73,2.51-87.63,0-130.1Z"/>
      <path class="cls-1" d="M338.64,979.41c-21.64,44.86,35.18,82.64,73.6,51.1,13.08-10.74,15.79-22.38,14.62-38.97-3.11-44.35-69.2-51.58-88.22-12.13ZM405,1018.76c-2.71,5.51-11.51,14.26-17.74,15.26-40.04,6.45-46.15-69.66-9.65-72.73,28.4-2.4,37.54,36.81,27.39,57.47Z"/>
      <path class="cls-1" d="M107.81,1027.6c-1.93-1.66-9.85-9.3-10.02-11.05-.16-1.58,5.3-14.34,6.49-16.5l8.54-10.96h-24c-.78,3.12,5.81,4.33,6.07,5.69.21,1.07-2.46,14.84-3.08,15.31-1.86.31-2.88-1.3-4.01-2.47-5.4-5.57-10.48-12.42-15.96-18.02-.02-1.58,13.35-7.83,14.95-10.3.97-1.5,3.07-7.74,3.12-9.7.4-14.36-21.26-17.07-31.77-12.68-15.65,6.53-10.12,22.43-5.25,34.59-14.11,8.14-20.44,17.06-17.98,34,1.03,7.08,9.29,13.32,15.87,15.13,13.97,3.85,26.08-1.5,36.54-10.58,8.4,5.33,12.52,11.92,23.76,9.8,1.66-.31,8.78-2.78,6.77-5.28-1.26-1.56-7.61-4.88-10.04-6.97ZM69.33,960.5c3.07.12,9.34,5.74,9.39,9.06.06,4.04-6.32,12.62-10.42,12.51-7.42-.2-12.83-22.09,1.03-21.57ZM67.06,1030.82c-19.68,2.4-21.1-21.57-8.6-31.67,6.48,3.58,10.32,10.28,14.7,15.59,1.7,2.06,7.14,5.3,7.52,9.01.35,3.46-10.73,6.71-13.62,7.07Z"/>
      <path class="cls-1" d="M812.47,964.44c-21.21-19.11-60.18-12.68-73.19,13.61-19.52,39.45,17.25,74.46,57.07,61.07,31.22-10.5,40.99-52.26,16.11-74.68ZM796.24,1028.51c-14.93,11.92-32.26,4.56-39.18-12.16-6.79-16.42-7.54-40.77,9.24-51.28,33.43-20.94,56.96,41.87,29.94,63.44Z"/>
      <path class="cls-1" d="M301.82,995.07c-1.49-2.04,7.48-6.49,8.95-8.75,9.57-14.73-1.81-29.7-17.45-31.24-12.28-1.2-28.25,0-41,0-.53,0-2.06,2.17-1.49,2.98.18.26,4.24,1.26,5.43,3.09,2.65,4.05,1.31,16.09,1.57,21.42.63,12.57,3.07,36.27.94,47.96-.55,3.03-3.72,6.5-6.95,6.56-.29.37,1.31,1.99,1.5,1.99h45c7.64,0,19.8-9.91,21.26-17.74,2.89-15.49-4.7-21.16-17.76-26.27ZM274.82,965.58c0-6.03,17.25-2.14,20.48,2.52,2.04,2.95,2.08,10.84,1.31,14.27-1.78,7.88-15.24,10.45-21.79,11.71v-28.5ZM302.72,1018.49c-.38,13.19-17.85,15-27.9,14.6.86-8.2-1.17-18.6,0-26.5.09-.6,2.17-5.43,2.66-5.55,12.67-1.08,25.68,2.49,25.24,17.45Z"/>
      <path class="cls-1" d="M697.03,959.38c-12.08-5.46-45.87-5.5-59.76-4.35-1.14.1-6.22.67-4.45,3.04.9,1.21,7.89.85,8.94,7.57-1.6,19.87,2.34,43.56.08,62.96-.66,5.68-3.16,5.41-6.76,8.19-.84.65-1.81-.03-1.26,2.29h58.5c1.04,0,15.53-10.51,17.04-11.96,19.92-19.07,13.04-56.27-12.34-67.75ZM699.32,1017.09c-6.99,15.91-27.75,15.49-42.51,16l2.01-72c13.88,2.65,31.58,1.04,38.88,15.61,5.06,10.1,6.14,30.09,1.62,40.38Z"/>
      <path class="cls-1" d="M597.81,303.59c1.89.87,2.43,3.74,3.72,4.54,3.94,2.45,12.66-4.25,17.88-4.96,5.36-.74,17.35-1.25,22.96-1.14,11.72.24,13.17,1.07,10.98,12.08-3.68,18.46-14.83,37.07-19.07,54.92-.47,1.97-1.62,4.72,1.53,4.05l20.51-53c1.66-2.95,1.51,3.2,1.51,3.51v48.5c1.92.29,2.68-.78,2.99-2.51,1.79-9.8-1.28-24.64-.04-35.04l2.03-14.45c5.27,14.54,9,30.99,15.55,44.96,2.19,4.67,8.75,13.93,5.78,3.22-5.16-18.58-18.42-42.59-20.23-61.81-1.24-13.17,14.71-6.92,10.44-15.38-2.92-5.79-10.51,2.02-14.25,2.78-2.73.55-6.94.41-9.82.27-11.11-.56-23.94-3.68-35.21-4.79-3.45-1.48-4.73-6.4-5.14-9.86-.66-5.61-.93-13.95-1.16-19.84-.11-2.9-.3-5.85,1.04-8.54h-9.5s-.67,39.83-.67,39.83c-16.1,8.01-34.64,8.14-52.19,10.3l-1.54,1.51c4.72,24.4-10.66,46.34-16.1,69.35,2.66.55,1.72-.67,2.48-1.97,7.68-13.07,12.71-30.51,17.01-45.04.09,4.42,1.34,9.13,1.54,13.47.42,9.02-1.5,22.98-.04,31.04.31,1.73,1.07,2.8,2.99,2.51v-38.5l1.99-7.49c4.61,12.09,8.48,25.78,14.16,37.35.56,1.13,5.91,11.73,7.85,9.64-4.23-14.94-12.48-28.86-16.71-43.78-1.31-4.63-4.81-18.29-2.08-22.01.84-1.15,14.73-2.95,17.31-3.2,3.32-.33,19.62-1.35,21.48-.5Z"/>
      <path class="cls-1" d="M454.32,696.08c1.13.93,1.62,2.43,3.5,1.99l-106.2-210.78c-4.27-.99-4.48-.15-3.32,3.81l36.54,76.47-.51,1.5-40.47-76.55c-2.33-1.49-4.77.92-5.06,3.09,19.01,41.07,40.62,81.54,62.85,121.13,13.42,23.9,32.06,62.27,52.67,79.33Z"/>
      <path class="cls-1" d="M497.32,1002.08c-.21,0-1.7,1.13-1.02,2.01,1.36,1.75,6.42,1.23,8.25,5.76.75,1.85,2.43,14.66,2.25,16.64-.45,5.05-7.38,6.97-11.6,7.49-41.29,5.08-47.15-58.35-16.8-70.8,5.44-2.23,16.95-2.1,22.66-.83,5.38,1.2,12.87,14.23,16.73,16.26,1.31.69,1.64.7,2.54-.52.64-.86-.9-19.19-2.96-21.07-1.56-1.43-7.79-2.43-10.19-2.81-83.9-13.34-86.53,93.65-11.9,87.87,8.85-.69,17.87-3.93,26.41-6.08,1.23-7.92-.91-22.31,4.08-28.42,1.88-2.3,4.88-1.9,4.02-5.48h-32.5Z"/>
      <path class="cls-1" d="M659.87,280.03c.6.58,5.4.12,6.56-.84.74-.61,2.39-5.85,2.39-6.61v-95.5h-40.5c-4.66,0-1.21,31.27-1.51,35.51.29,1.52,7.61,7.95,10.01,8.49v-36c0-.2,3.28.13,4,0l1.96,96.34c.31,1.36,11.04,4.1,11.04,1.16v-98.5h5.01c1.51,11.17-2.41,92.62,1.04,95.94Z"/>
      <path class="cls-1" d="M206.68,965.73c-.85-1.82-4.57-9.95-5.34-10.65-3.14-2.86-10.7,1.5-14.51,2.02-.41,2.52,2.48,2.6,2.54,5.04.1,3.94-6.04,18.43-7.79,23.2-3.35,9.12-15.72,43.77-21.21,48.79-1.98,1.81-3.67,3.09-6.54,2.97-.32.3,1.29,1.99,1.5,1.99h24.5c1.01-4.38-5.46-4.42-5.6-8.49-.04-1.13,5.02-15.91,5.76-16.35,8.34-.57,18.08-2.18,26.4-1.22,1.74.2,2.24.08,3.36,1.64.83,1.16,7.09,16.98,7.07,17.99-.08,3.2-5.03,2.57-6.99,3.92-1.69.77.03,2.51.51,2.51h30.5c-1.35-4.19-5.18-5.99-7.53-9.97-10.38-17.56-17.6-44.1-26.61-63.39ZM184.82,1005.08c-1.34-1.32,6.95-22.09,8.49-25.05.55-1.06.07-2.5,2-1.96,1.37.39,8.13,23.74,8.51,27.01h-19Z"/>
      <path class="cls-1" d="M620.33,1036.08c-17.42-22.75-22.45-51.33-35.02-76.97-.86-1.76-2.16-4.95-3.98-5.13-1.57-.16-13.09,2.57-13.49,3.13-.81,1.14,1.76,4.52,1.58,7-.6,8.17-13.07,38.82-16.85,48.23-2.1,5.23-5.74,16.06-8.89,20.11-2.54,3.25-7.29,2.86-7.85,6.65h26c-1.18-2.75-5.38-4.37-5.73-7.62-.22-2.04,3.69-15.03,5.22-16.39,2.8-2.48,27.41-2.96,29.03-1.01.6.72,6.43,16.67,6.49,17.6.34,4.96-5.77,3.07-7.53,5.41-.67.89.8,2.01,1.02,2.01h31.5c.44-1.75-.72-2-1.49-3.01ZM564.82,1006.08c3.33-9.65,6.23-20.29,11.5-28.99l9.49,27.99-20.99,1Z"/>
      <path class="cls-1" d="M860.28,980.12c-4.75-4.75-5.66-11.61-.41-16.49,5.71-5.31,13.26-3.1,18.93.99,3.19,2.3,5.89,7.83,8.19,10.79.87,1.12.99,2.06,2.83,1.67v-15.5c0-4.82-3.89-6.34-7.95-7.05-20.18-3.52-43.89,1.35-39.81,26.81,3.3,20.61,39.52,21.89,37.81,41.25-.72,8.09-7.2,11.84-14.81,12.27-4.6.26-13.15-4.88-16.23-8.28-2.39-2.63-7.34-14.02-8.02-14.49-.65-.45-1.98.18-2.49.98-1.19,1.87.77,19.59,1.74,22.29,1.32,3.69,13.62,6.22,17.38,6.62,19.9,2.11,39.83-6.55,37.4-29.4-1.71-16.11-24.31-22.23-34.54-32.45Z"/>
      <path class="cls-1" d="M521.59,565.36c1.22-6.02.47-20.01.27-26.82-1.02-33.62-3.15-72.64-7.05-105.95-.87-7.41-1.97-15.96-3.86-23.14-.76-2.91-1.5-7.7-4.12-9.37.88,44.12-1.2,88.43-.05,132.54.34,13.16.52,30.1,1.99,43.01,1.13,9.89,11.94-5.92,12.82-10.27Z"/>
      <path class="cls-1" d="M433.52,255.28c-2.32,1.2-6.62.32-5.57,4.14.46,1.67,9.08,9.75,10.95,11.07,10.83,7.65,21.71,8.74,33.91,3.08,3.57-1.66,13.64-9.75,12.86-13.86-.44-2.31-11.82-7.63-13.88-6.2-.96.67-.39,2.87-1.97,2.56-.41-3.14,1-12.88-1.25-14.76-1.47-1.23-13.47-2.8-16.76-3.73-3.57-1.01-6.31-3.39-9.99-3.5.98,5.39,1.16,11.15,4,15.98-5.39-1.05-8.19,3.08-12.3,5.21Z"/>
      <path class="cls-1" d="M462.2,196.15c-2.77-.81-21.05,7.11-25.24,8.07-1.88,18.54,9.07,31.53,28.3,28.8,4.69-.66,12.93-9.43,14.1-13.9,3.06-11.67-1.4-18.33-12.97-20.1l-2.56,9.06c-.47-2.58,1.31-11.08-1.63-11.93ZM465.61,224.4c0,.63-1.98,1.15-4.43,1.15s-4.43-.51-4.43-1.15,1.98-1.15,4.43-1.15,4.43.51,4.43,1.15Z"/>
      <path class="cls-1" d="M417.78,656.7c-.27-3.71-12.49-21.83-15.55-25.53-.59-.72-4.42-5.34-5.41-4.08l-7,59.99c13.01.23,26.38-2.15,37.74-8.73.89-.52,1.52.15,1.27-1.7-.24-1.82-4.72-10.9-6.49-10.61-2.63.42-15.09,13.49-16.52,12.05-.64-.65,9.38-12.91,10.39-15.1.99-2.15,1.75-3.79,1.57-6.28Z"/>
      <path class="cls-1" d="M323.82,152.08l2-13h-90.5c-2.45,0-1.25,10.75-1.5,13h90Z"/>
      <path class="cls-1" d="M689.32,139.08h-89.5l2,13h88c-.88-2.26,2.66-13-.5-13Z"/>
      <path class="cls-1" d="M435.82,235.59c1.12-11.06-6.46-18.02-8.01-27-.6-3.47,4.63.95,6.01-1l-6.99-6.49c10.04.31,25.28-9.26,34.37-8.68,7.2.46,17.52,9.27,24.62,11.67,1.68-4.81,1.64-8.6-2.48-12.01-7.58-6.28-26.65-12.59-36.33-10.3-3.52.83-22.19,9.36-22.98,12-1.83,6.06,1.71,6.37,1.69,6.75-.13,2.17-1.18,3.85-.88,7.05.4,4.29,3.23,9.2,3.07,13-.2,4.8-5.98,8.73-6.86,13.25-2.3,11.83,13.23,17.2,14.79,1.76Z"/>
      <path class="cls-1" d="M690.82,379.08h-63.5c-3.21,0,1.49,6.12,2.09,6.91,12.15,16.19,36.53,18.65,52.33,6.5,3.88-2.99,8.81-8.38,9.09-13.41Z"/>
      <path class="cls-1" d="M564.85,398.61c7-2.06,18.9-11.6,18.97-19.53h-61c3.55,17.5,26.72,24.04,42.03,19.53Z"/>
      <path class="cls-1" d="M456.37,156.04c-13.31-.4-31.77,6.9-32.55,22.04,1.64.41,2.32-.34,3.52-.97,7.04-3.7,11.9-8.56,20.43-10.58,1.01-.24,3.27-1.32,3.04.54-4.24-.47-27.79,14-23.99,18.01,8.8-2.76,17.27-6.94,26.23-9.26,2.51-.65,9.31-2.74,11.26-2.74h20.5c-3.33-13.69-15.99-16.67-28.45-17.04Z"/>
      <path class="cls-1" d="M517.39,689.14c9.72.33,5.65-9.01,6.48-15.61l-7.05-87.45c-2.85-3.33-5.53,11.74-5.7,12.79-3.53,20.97-.23,53.13,2.84,74.58.29,2.05,2.34,15.52,3.44,15.69Z"/>
      <path class="cls-1" d="M487.83,622.08l-7,76c1.72-1.38,11.37-2.48,11.89-3.09.44-.51,1.05-11.45,1.14-13.36.55-11.95-.33-28.88-1.06-41.04-.22-3.63-.92-11.91-2.02-14.98-.54-1.52-1.28-3.06-2.96-3.53Z"/>
      <path class="cls-1" d="M595.83,233.08c.17.24,4.58-1.89,5.49-2,4.51-.55,9.88.4,14.5,0,.26,1.44-1.9,1.32-2.97,1.52-4.28.8-16.19.67-17.05,5.97-.28,1.72.04,1.57,1.53,1.55,4.47-.07,9.62-1.98,14.48-1.03.25,1.49-1.87,1.24-2.98,1.49-2.49.57-10.65.38-9.01,3.99,1.32,2.91,11.99,2.05,14.99,3.52.01,1.89-2.9.69-2.96,3.38-.01.57.7,7.34.97,7.61.64.65,4.34-.23,5.56-.94,4.8-2.8,9.25-29.44,4.01-33.14-3.6-2.54-29.19-2.74-26.56,8.07Z"/>
      <path class="cls-1" d="M254.42,170.99c8.58,1.24,39.31,1.29,47.95.14,6.41-.85,6.63-9.95-.11-10.98-6.41-.98-42.97-1.12-48.72.15-6.14,1.35-7.68,9.45.88,10.69Z"/>
      <path class="cls-1" d="M672.29,160.11c-15.69,1.4-34.75-1.94-50.01-.11-1.89.23-5.52,5.75-4.28,7.91.74,1.3,7.45,2.97,9.33,3.16,9.43.97,27.43.79,37.02.05,7.52-.58,17.37-4.41,7.94-11.01Z"/>
      <path class="cls-1" d="M360.61,470.89c1.54-2.62-2.2-10.56-5.75-8.3l-41.08,28.96c-4.68,4.33-.18,11.06,5.76,7.76l41.06-28.41Z"/>
      <path class="cls-1" d="M467.96,696.93c3.88,2.19,5.1-6.99,5.59-9.62,1.99-10.55,2.88-22.53,3.26-33.23-4.41,2.99-21.15,15.23-21.84,19.72-.36,2.38,11.49,22.28,12.98,23.12Z"/>
      <path class="cls-1" d="M507.33,690.09c2.47-4.2-1.89-41.74-3.62-48.4-.45-1.71-1.06-3.97-2.21-5.3-.54-.62-4.11-2.91-4.67-2.31l1.99,58c2.32.14,7.25.16,8.51-1.99Z"/>
      <path class="cls-1" d="M592.99,262.75c-3.03,3.92-5.67,9.22-8.76,13.24-4.05,5.29-10.16,9.97-12.43,16.57,4.05,1.02,21.25-2.83,22.52-5.48.16-.33,1.49-6.18,1.49-6.51v-19.5c-1.83-.39-1.96.55-2.83,1.67Z"/>
      <path class="cls-1" d="M272.1,565.37c1.39,1.24,10.51,8.71,11.22,8.71h20.5c.23-2.18.47-11-2.5-11h-30.5c-.63,2.36.62,1.69,1.28,2.29Z"/>
      <path class="cls-1" d="M636.37,574.13c3-.28,13.61-5.91,14.97-8.03.95-1.48-.48-3.02-1.02-3.02h-29c-6.63,12.36,6.24,11.87,15.05,11.05Z"/>
      <path class="cls-1" d="M317.82,599.09l-1-17h-25c7.68,6.59,14.54,18.86,26,17Z"/>
      <path class="cls-1" d="M627.33,585.09c.78-1.01,1.92-1.27,1.49-3.01h-22v17c8.65,1.86,15.7-7.77,20.51-13.99Z"/>
      <path class="cls-1" d="M564.82,318.59c7.24,11.08,20.17-1.48,21-10.5-6.97.93-28.53-1.02-21,10.5Z"/>
      <path class="cls-1" d="M485.82,210.09c-2.69-.46-1.73.48-2.27,2.17-3.15,9.97-5.93,20.25-8.59,30.37.13,3.42,5.14,8.5,8.86,7.45.7-5.95-1.31-11.62-1.03-17.54.35-7.43,4.37-14.68,3.03-22.46Z"/>
      <path class="cls-1" d="M459.82,177.09c-.42.42-.26,2.47,1.27,2.23,3.97-.13,25.45,9.05,26.73,7.76.27-2.68-1.16-7.49-3.71-8.78-3.59-1.82-21.98-3.52-24.29-1.2Z"/>
      <path class="cls-1" d="M620.32,222.08c1.51-.26,3.45-1.77,2.5-2.98-.24-.31-6.53-1.79-7.6-1.9-4.88-.47-15.13,0-16.39,5.88.81.71,18.83-.54,21.49-1Z"/>
      <path class="cls-1" d="M318.57,429.33c-4-3.94-9.71,1.01-11.75,4.74,4.07.76,5.6,6.07,9.99,6.02-.51-3.78,5.28-7.29,1.76-10.76Z"/>
    </g>
  </g>
</svg>